<?xml version="1.0" ?><svg height="60px" version="1.1" viewBox="0 0 56 60" width="56px" xmlns="http://www.w3.org/2000/svg" xmlns:sketch="http://www.bohemiancoding.com/sketch/ns" xmlns:xlink="http://www.w3.org/1999/xlink"><title/><desc/><defs/><g fill="none" fill-rule="evenodd" id="Page-1" stroke="none" stroke-width="1"><g id="33---Calendar-(Outline)" stroke="#1A1718" stroke-linecap="round" stroke-linejoin="round" stroke-width="2" transform="translate(1.000000, 1.000000)"><path d="M8,0 L15,0 L15,8 L8,8 L8,0 Z M39,0 L46,0 L46,8 L39,8 L39,0 Z M46,4 L46,8 L39,8 L39,4 L15,4 L15,8 L8,8 L8,4 L0,4 L0,15 L54,15 L54,4 L46,4 L46,4 Z M46,4 L46,8 L39,8 L39,4 L15,4 L15,8 L8,8 L8,4 L0,4 L0,58 L54,58 L54,4 L46,4 L46,4 Z" id="Stroke-177"/><path d="M9,23 L18,23 L18,32 L9,32 L9,23 Z M9,32 L18,32 L18,41 L9,41 L9,32 Z M9,41 L18,41 L18,50 L9,50 L9,41 Z M18,23 L27,23 L27,32 L18,32 L18,23 Z M18,32 L27,32 L27,41 L18,41 L18,32 Z M18,41 L27,41 L27,50 L18,50 L18,41 Z M27,23 L36,23 L36,32 L27,32 L27,23 Z M27,32 L36,32 L36,41 L27,41 L27,32 Z M27,41 L36,41 L36,50 L27,50 L27,41 Z M36,23 L45,23 L45,32 L36,32 L36,23 Z M36,32 L45,32 L45,41 L36,41 L36,32 Z M36,41 L45,41 L45,50 L36,50 L36,41 Z" id="Stroke-178"/></g></g></svg>