<?xml version="1.0" ?><!DOCTYPE svg  PUBLIC '-//W3C//DTD SVG 1.1//EN'  'http://www.w3.org/Graphics/SVG/1.1/DTD/svg11.dtd'><svg enable-background="new 0 0 100 100" height="100px" id="Your_Icon" version="1.1" viewBox="0 0 100 100" width="100px" xml:space="preserve" xmlns="http://www.w3.org/2000/svg" xmlns:xlink="http://www.w3.org/1999/xlink"><path d="M41.492,20.127c7.653,0,14.313,4.217,17.811,10.448c1.229-0.389,2.535-0.601,3.893-0.601c5.82,0,10.735,3.857,12.34,9.154  c10.384,0.961,18.517,9.689,18.517,20.323c0,11.278-9.143,20.42-20.42,20.42H26.368c-11.277,0-20.42-9.142-20.42-20.42  c0-9.457,6.438-17.39,15.165-19.712C21.54,28.84,30.487,20.127,41.492,20.127 M41.492,17.127c-11.894,0-21.701,8.784-23.197,20.36  C9.16,40.838,2.948,49.585,2.948,59.452c0,12.914,10.506,23.42,23.42,23.42h47.264c12.914,0,23.42-10.506,23.42-23.42  c0-11.522-8.187-21.119-19.337-23.058c-2.525-5.707-8.137-9.42-14.52-9.42c-0.837,0-1.669,0.065-2.491,0.195  C56.35,20.924,49.18,17.127,41.492,17.127L41.492,17.127z"/></svg>