<?xml version="1.0" ?><!DOCTYPE svg  PUBLIC '-//W3C//DTD SVG 1.1//EN'  'http://www.w3.org/Graphics/SVG/1.1/DTD/svg11.dtd'><svg enable-background="new 0 0 128 128" height="128px" id="Layer_1" version="1.1" viewBox="0 0 128 128" width="128px" xml:space="preserve" xmlns="http://www.w3.org/2000/svg" xmlns:xlink="http://www.w3.org/1999/xlink"><g><path d="M99.625,103.625H22.75C10.206,103.625,0,93.42,0,80.875C0,69.488,8.409,60.028,19.344,58.38   c1.792-10.769,11.173-19.004,22.442-19.004c2.294,0,4.582,0.353,6.767,1.035c5.205-9.735,15.472-16.036,26.697-16.036   c13.929,0,26.038,9.668,29.35,22.944C117.948,49.689,128,61.405,128,75.25C128,90.896,115.271,103.625,99.625,103.625   L99.625,103.625z M22.658,66.125C14.567,66.176,8,72.773,8,80.875c0,8.133,6.617,14.75,14.75,14.75h76.875   c11.234,0,20.375-9.141,20.375-20.375c0-10.697-8.357-19.625-19.027-20.325l-3.244-0.213l-0.455-3.219   C95.734,40.594,86.266,32.375,75.25,32.375c-9.286,0-17.682,5.865-20.892,14.593l-1.587,4.317l-4.055-2.171   c-2.154-1.153-4.485-1.738-6.93-1.738c-8.088,0-14.677,6.544-14.75,14.616l0,4.231l-4.08-0.082   C22.856,66.139,22.757,66.133,22.658,66.125z"/></g></svg>