<?xml version="1.0" ?><svg height="60px" version="1.1" viewBox="0 0 60 60" width="60px" xmlns="http://www.w3.org/2000/svg" xmlns:sketch="http://www.bohemiancoding.com/sketch/ns" xmlns:xlink="http://www.w3.org/1999/xlink"><title/><desc/><defs/><g fill="none" fill-rule="evenodd" id="Page-1" stroke="none" stroke-width="1"><g id="Icons" stroke="#1A1718" stroke-linecap="round" stroke-linejoin="round" stroke-width="2" transform="translate(-360.000000, -4797.000000)"><g id="8---Spotlight-(Outline)" transform="translate(361.000000, 4798.000000)"><path d="M25,5.5 C25,8.537 19.404,11 12.5,11 C5.596,11 0,8.537 0,5.5 C0,2.462 5.596,0 12.5,0 C19.404,0 25,2.462 25,5.5 L25,5.5 Z" id="Path"/><path d="M58,5.5 C58,8.537 52.404,11 45.5,11 C38.596,11 33,8.537 33,5.5 C33,2.462 38.596,0 45.5,0 C52.404,0 58,2.462 58,5.5 L58,5.5 Z" id="Path"/><path d="M58,5 L57.943,5 C57.951,5.042 57.951,5.085 57.957,5.128 L58,5 L58,5 Z" id="Path"/><path d="M45.5,11 C38.596,11 33,8.537 33,5.5 C33,5.331 33.024,5.165 33.057,5 L33,5 L0,58 L57,8 L57.188,7.436 C55.406,9.517 50.852,11 45.5,11 L45.5,11 Z" id="Path"/><path d="M20.488,25.094 L29,11.424 L25,5 L24.943,5 C24.976,5.165 25,5.331 25,5.5 C25,8.537 19.404,11 12.5,11 C7.148,11 2.594,9.517 0.812,7.436 L1,8 L20.488,25.094 L20.488,25.094 Z" id="Path"/><path d="M29,32.562 L58,58 L37.512,25.094 L29,32.562 L29,32.562 Z" id="Path"/><path d="M45.5,11 C38.596,11 33,8.537 33,5.5 C33,5.331 33.024,5.165 33.057,5 L33,5 L0,58 L57,8 L57.188,7.436 C55.406,9.517 50.852,11 45.5,11 L45.5,11 Z" id="Path"/></g></g></g></svg>