<?xml version="1.0" ?><svg height="59px" version="1.1" viewBox="0 0 48 59" width="48px" xmlns="http://www.w3.org/2000/svg" xmlns:sketch="http://www.bohemiancoding.com/sketch/ns" xmlns:xlink="http://www.w3.org/1999/xlink"><title/><desc/><defs/><g fill="none" fill-rule="evenodd" id="Page-1" stroke="none" stroke-width="1"><g id="Icons" stroke="#000000" stroke-linejoin="round" stroke-width="2" transform="translate(-365.000000, -718.000000)"><g id="348---Trash-Bin-(Outline)" transform="translate(366.000000, 719.000000)"><path d="M43,6 L41.044,53 C41.044,53 40.96,57 37.136,57 L8.864,57 C5.04,57 4.956,53 4.956,53 L3,6 M30.999,6 C30.999,6 31.155,0 26.999,0 L21.939,0 L22.061,0 L17,0 C12.844,0 13,6 13,6" id="Stroke-268"/><path d="M23,16 L23,49 M13,16 L13,49 M33,16 L33,49 M0,6 L46,6" id="Stroke-269" stroke-linecap="round"/></g></g></g></svg>