<?xml version="1.0" ?><svg height="24px" version="1.1" viewBox="0 0 60 24" width="60px" xmlns="http://www.w3.org/2000/svg" xmlns:sketch="http://www.bohemiancoding.com/sketch/ns" xmlns:xlink="http://www.w3.org/1999/xlink"><title/><desc/><defs/><g fill="none" fill-rule="evenodd" id="Page-1" stroke="none" stroke-width="1"><g id="Icons" stroke="#000000" stroke-linecap="round" stroke-linejoin="round" stroke-width="2" transform="translate(-1080.000000, -377.000000)"><g id="372---Reading-List-(Outline)" transform="translate(1081.000000, 378.000000)"><path d="M25,11 C25,17.075 20.188,22 14.072,22 C7.957,22 3,17.075 3,11 C3,4.925 7.957,0 14.072,0 C20.188,0 25,4.925 25,11 L25,11 Z M55,11 C55,17.075 50.187,22 44.072,22 C37.957,22 33,17.075 33,11 C33,4.925 37.957,0 44.072,0 C50.187,0 55,4.925 55,11 L55,11 Z M33,11 C30.805,7.444 27.195,7.444 25,11 M3,11 L0,11 L3,11 Z M55,10 L58,10 L55,10 Z" id="Stroke-14"/></g></g></g></svg>