<?xml version="1.0" ?><svg height="59px" version="1.1" viewBox="0 0 55 59" width="55px" xmlns="http://www.w3.org/2000/svg" xmlns:sketch="http://www.bohemiancoding.com/sketch/ns" xmlns:xlink="http://www.w3.org/1999/xlink"><title/><desc/><defs/><g fill="none" fill-rule="evenodd" id="Page-1" stroke="none" stroke-width="1"><g id="199---Share-(Outline)" stroke="#000000" stroke-linecap="round" stroke-width="2" transform="translate(1.000000, 1.000000)"><path d="M18,28.456 C18,33.426 13.971,37.456 9,37.456 C4.029,37.456 0,33.426 0,28.456 C0,23.485 4.029,19.456 9,19.456 C13.971,19.456 18,23.485 18,28.456 L18,28.456 Z" id="Stroke-428"/><path d="M50.364,54.364 C46.849,57.879 41.151,57.879 37.636,54.364 C34.121,50.849 34.121,45.151 37.636,41.636 C41.151,38.121 46.849,38.121 50.364,41.636 C53.879,45.151 53.879,50.849 50.364,54.364 L50.364,54.364 Z" id="Stroke-430"/><path d="M44,18 C39.029,18 35,13.971 35,9 C35,4.029 39.029,0 44,0 C48.971,0 53,4.029 53,9 C53,13.971 48.971,18 44,18 L44,18 Z" id="Stroke-432"/><path d="M35.923,12.972 L17.016,24.36" id="Stroke-434"/><path d="M17.016,32.549 L35.923,44.025" id="Stroke-436"/></g></g></svg>